<svg xmlns="http://www.w3.org/2000/svg" viewBox="0 0 400 300" role="img" aria-label="Live online class on a laptop with video lessons">
  <defs>
    <linearGradient id="o1" x1="0" y1="0" x2="1" y2="1"><stop offset="0" stop-color="#7c5cff"/><stop offset="1" stop-color="#ec4899"/></linearGradient>
  </defs>
  <rect width="400" height="300" rx="24" fill="#fdf1f7"/>
  <circle cx="330" cy="240" r="90" fill="#ec4899" opacity=".1"/>
  <rect x="46" y="52" width="308" height="180" rx="16" fill="#241f38"/>
  <rect x="60" y="66" width="280" height="128" rx="10" fill="url(#o1)"/>
  <circle cx="140" cy="130" r="34" fill="#ffffff" opacity=".92"/>
  <path d="M126 108c8-6 20-6 28 0 6 5 6 12 0 17-6 6-16 9-28 9s-22-3-28-9c-6-5-6-12 0-17 8-6 20-6 28 0z" fill="#4f46e5" opacity=".35"/>
  <rect x="188" y="96" width="120" height="12" rx="6" fill="#ffffff" opacity=".85"/>
  <rect x="188" y="118" width="92" height="12" rx="6" fill="#ffffff" opacity=".6"/>
  <rect x="188" y="140" width="106" height="12" rx="6" fill="#ffffff" opacity=".75"/>
  <rect x="74" y="204" width="152" height="26" rx="6" fill="#ffd166"/>
  <rect x="236" y="204" width="104" height="26" rx="6" fill="#34d399"/>
  <circle cx="112" cy="217" r="9" fill="#241f38"/>
  <circle cx="288" cy="217" r="9" fill="#241f38"/>
  <path d="M168 232h64l-10 30h-44z" fill="#3a3560"/>
  <rect x="132" y="262" width="136" height="12" rx="6" fill="#c9cdf0"/>
  <g font-family="Segoe UI, Arial" font-weight="800" font-size="24" fill="#ec4899" opacity=".6">
    <text x="24" y="46">REC</text>
  </g>
  <circle cx="86" cy="40" r="8" fill="#ef4444"/>
</svg>
